<?xml version="1.0" encoding="UTF-8"?>
<!DOCTYPE svg PUBLIC "-//W3C//DTD SVG 1.1//EN" "http://www.w3.org/Graphics/SVG/1.1/DTD/svg11.dtd">
<!-- Creator: CorelDRAW -->
<svg xmlns="http://www.w3.org/2000/svg" xml:space="preserve" width="1000px" height="1000px" style="shape-rendering:geometricPrecision; text-rendering:geometricPrecision; image-rendering:optimizeQuality; fill-rule:evenodd; clip-rule:evenodd"
viewBox="0 0 1000 1000"
 xmlns:xlink="http://www.w3.org/1999/xlink">
 <defs>
  <style type="text/css">
   <![CDATA[
    .str2 {stroke:#1F1A17;stroke-width:0.999804}
    .str1 {stroke:#1F1A17;stroke-width:1.1811}
    .str0 {stroke:#A22720;stroke-width:4.99961}
    .fil1 {fill:#1F1A17}
    .fil0 {fill:#B32721}
   ]]>
  </style>
 </defs>
 <g id="Camada_x0020_1">
  <metadata id="CorelCorpID_0Corel-Layer"/>
  <g id="_116185800">
   <g>
    <path id="_115260344" class="fil0 str0" d="M550.988 519.057c-227.054,44.0581 -490.644,19.8124 -511.695,-39.4388 -21.052,-59.2506 205.425,-179.482 432.479,-223.539 227.054,-44.0581 470.03,-9.91241 491.081,49.3382 21.052,59.2512 -184.811,169.582 -411.865,213.64zm416.149 -219.033c-26.0392,-73.2892 -255.597,-92.2542 -512.732,-42.3597 -257.135,49.8951 -444.474,149.756 -418.434,223.045 26.0392,73.2892 255.597,92.2542 512.732,42.3597 257.135,-49.8951 444.474,-149.756 418.434,-223.045z"/>
    <path id="_115260296" class="fil0 str0" d="M549.741 512.316c-199.122,29.69 -426.235,-1.13622 -441.295,-53.2347 -15.0597,-52.0985 187.654,-147.778 386.776,-177.468 199.122,-29.69 407.84,8.94095 422.9,61.0394 15.0597,52.0985 -169.26,139.974 -368.381,169.664zm372.384 -174.175c-18.6278,-64.4428 -216.534,-89.4266 -442.036,-55.803 -225.503,33.6236 -393.207,113.122 -374.579,177.564 18.6278,64.4422 216.534,89.4261 442.036,55.8024 225.503,-33.6236 393.207,-113.122 374.579,-177.564z"/>
    <path id="_115259432" class="fil1" d="M129.077 266.456c-15.2327,23.0091 -18.5664,51.7577 -17.8164,72.9243 0.750001,21.1666 5.58367,34.7504 11.5004,46.4168 5.91674,11.6663 13.5833,21 23.4171,29.4177 9.83268,8.41595 21.8327,15.916 39.9154,18.2486 18.0833,2.33327 42.2504,-0.499607 61.6678,-7.16634 19.4156,-6.66674 34.0831,-17.1667 37.5827,-27.0827 3.5002,-9.91772 -4.16693,-19.2514 -8.30375,-23.7154 -4.13918,-4.46634 -4.74981,-4.063 -5.89016,-3.30709l-7.9252 5.24292c-5.11182,3.38209 -13.663,9.03898 -24.7719,12.8669 -11.9811,4.12914 -40.4422,6.32894 -54.1689,0.239173 -7.95178,-3.52736 -30.7471,-28.4575 -27.0508,-40.2189 0.457678,-1.45866 1.01811,-0.79252 6.77304,-1.11614 5.75493,-0.323622 16.2549,-0.825591 36.1111,-2.13603 19.8561,-1.30984 49.0672,-3.42933 66.8197,-6.98268 17.7532,-3.55276 24.0449,-8.53879 24.5416,-23.3014 0.496654,-14.7632 -4.80178,-39.3053 -21.0301,-59.0528 -16.2278,-19.7475 -43.3843,-34.7032 -70.8621,-33.3378 -27.4784,1.36536 -55.2768,19.0518 -70.5095,42.0609zm37.6063 50.8571c-6.99449,-0.317717 -9.81556,-1.95354 -9.89883,-8.70296 -0.0838583,-6.75001 2.57126,-18.6148 10.2325,-28.2969 7.66064,-9.68268 20.3268,-17.1821 33.4931,-17.6823 13.1669,-0.500788 26.8335,5.99941 35.0008,14.5825 8.16674,8.58308 10.8331,19.2502 10.5833,25.6671 -0.250394,6.41634 -3.41634,8.58367 -12.2504,10.0004 -8.83347,1.41614 -23.3333,2.08229 -36.166,2.91614 -12.8339,0.833268 -24.0006,1.83366 -30.9945,1.51595z"/>
    <path id="_115259504" class="fil1" d="M410.326 424.993c3.58347,-1.5 9.41635,-4.33288 12.7081,-10.7079 3.29173,-6.37501 3.9124,-12.5203 3.95374,-17.8536 0.0826772,-10.5839 3.09331,-7.63111 -20.4532,-4.52126 -7.47166,0.986812 -16.4587,0.74941 -22.0417,-0.291733 -5.58367,-1.04173 -7.7504,-2.79213 -10.1669,-5.54174 -2.41713,-2.7502 -5.08347,-6.5002 -6.08327,-25.4516 -1.00039,-18.9514 -0.333662,-53.1042 0,-70.1877l0.333071 -17.1041c0,-0.102165 55.7569,0.735827 56.4166,0.0761812l-0.416339 -35.8329 -55.5 0.249803 0.708071 -55.6247c-0.125197,-11.2919 -0.791339,-11.7089 -7.99961,-12.8752 -7.20827,-1.16693 -20.9587,-3.08327 -27.6668,-4.04174 -6.70867,-0.958465 -6.37501,-0.958465 -6.20847,11.2081l0.166536 60.8333 -21.2498 0c-4.2502,0 -4.2502,0 -4.29154,5.58367l-0.166536 22.3335c-0.0419292,5.58308 -0.0419292,5.58308 4.33347,5.58603l21.8764 -0.022441 0.581693 110.528c0.249803,23.8252 0.582874,28.1587 2.49981,32.0758 1.91693,3.91654 5.41654,7.41615 9.5002,9.49961 4.08307,2.08347 8.74961,2.74961 19.3329,3.16654 10.5833,0.416339 27.0833,0.583465 36,0.583465 8.91674,0 10.2502,-0.167126 13.8337,-1.66713z"/>
    <path id="_115259528" class="fil1" d="M460.888 265.683c-15.2327,23.0091 -18.5664,51.7577 -17.8164,72.9243 0.750001,21.1666 5.58367,34.7504 11.5004,46.4168 5.91674,11.6663 13.5833,21 23.4171,29.4177 9.83268,8.41595 21.8327,15.916 39.9154,18.2486 18.0833,2.33327 42.2504,-0.499607 61.6678,-7.16634 19.4156,-6.66674 34.0831,-17.1667 37.5827,-27.0827 3.5002,-9.91772 -4.16693,-19.2514 -8.30375,-23.7154 -4.13918,-4.46634 -4.74981,-4.063 -5.89016,-3.30709l-7.9252 5.24292c-5.11182,3.38209 -13.6636,9.03957 -24.7719,12.8669 -11.9805,4.12855 -46.9719,5.31378 -53.2217,1.06476 -1.52835,-1.03937 -8.7502,-4.5 -12,-6.75001 -2.48327,-1.7191 -18.9065,-25.0341 -15.998,-34.2945 0.457087,-1.45689 1.01811,-0.79252 6.77304,-1.11614 5.75493,-0.323622 16.2549,-0.825591 36.1111,-2.13603 19.8561,-1.30984 49.0672,-3.42933 66.8197,-6.98268 17.7532,-3.55276 24.0449,-8.53879 24.5416,-23.3014 0.496654,-14.7632 -4.80178,-39.3053 -21.0301,-59.0528 -16.2278,-19.7475 -43.3843,-34.7032 -70.8621,-33.3378 -27.4784,1.36536 -55.2768,19.0518 -70.5095,42.0609zm37.6063 50.8571c-6.99449,-0.317717 -9.81556,-1.95354 -9.89883,-8.70296 -0.0838583,-6.75001 2.57126,-18.6148 10.2325,-28.2969 7.66064,-9.68268 20.3268,-17.1821 33.4931,-17.6823 13.1669,-0.500788 26.8335,5.99941 35.0008,14.5825 8.16674,8.58308 10.8331,19.2502 10.5833,25.6671 -0.250394,6.41634 -3.41634,8.58367 -12.2504,10.0004 -8.83347,1.41614 -23.3333,2.08229 -36.166,2.91614 -12.8339,0.833268 -24.0006,1.83366 -30.9945,1.51595z"/>
    <path id="_115259576" class="fil1" d="M724.078 386.916c-12.1293,-3.09036 -22.4628,-10.2573 -29.7969,-23.0906 -7.33288,-12.8333 -11.6658,-31.3341 -9.33249,-48.8339 2.33327,-17.4998 11.3333,-33.9998 24.0833,-42.6668 12.75,-8.66635 29.25,-9.49961 41.667,-8.08288 14.0929,1.60807 22.9553,6.05493 29.0829,8.7502l7.49469 -36.0024c-7.50945,-3.99036 -18.1246,-10.6376 -35.426,-13.6152 -14.9953,-2.58071 -34.7817,-2.23169 -52.7587,5.19272 -17.977,7.42501 -34.1433,21.9242 -44.38,42.8244 -10.2372,20.8996 -14.5441,48.1991 -12.2108,70.4493 2.33327,22.2502 11.3073,39.4506 22.3778,53.3847 11.0699,13.9335 24.2362,24.6 40.0837,29.736 15.848,5.13603 34.376,4.74036 48.4176,2.28248 14.0421,-2.45847 23.5967,-6.98032 28.3736,-9.24095 4.77815,-2.26122 4.77815,-2.26122 4.73622,-2.26122l-5.45788 -38.7502 -2.82874 1.84075c-2.82874,1.84016 -8.48623,5.52166 -18.2782,7.85493 -9.79135,2.33327 -23.7171,3.31949 -35.8471,0.228543z"/>
    <polygon id="_115259624" class="fil1 str1" points="332.804,459.668 344.054,459.918 344.554,540.918 332.554,540.918 "/>
    <path id="_115259648" class="fil1 str1" d="M359.554 468.418l12 0 0 21 15 0 0 9.00001 -15 0 0 29.0002c1.99961,2.7502 3.24981,2.7502 9.49961,0.999804l6.5002 -1.99961 -0.999804 10.5c0,0 -4.0004,2.25 -5.96044,2.76851 -1.96004,0.518504 -12.2563,0.61004 -12.2563,0.61004 -6.28347,-0.628938 -6.62481,-0.894095 -8.78327,-6.09745l0 -35.7815 -5.7502 0 -0.249803 -12 6 0 0 -18z"/>
    <g>
     <path id="_116186184" class="fil1 str2" d="M424.087 481.637c15.6715,0 28.3801,13.2036 28.3801,29.4845 0,16.2809 -12.7087,29.4845 -28.3801,29.4845 -15.6715,0 -28.3801,-13.2036 -28.3801,-29.4845 0,-16.2809 12.7087,-29.4845 28.3801,-29.4845zm0 11.3976c9.79017,0 17.7295,8.10001 17.7295,18.0886 0,9.988 -7.93938,18.0886 -17.7295,18.0886 -9.78898,0 -17.729,-8.1006 -17.729,-18.0886 0,-9.98859 7.93997,-18.0886 17.729,-18.0886z"/>
     <rect id="_116062640" class="fil1" x="440.85" y="483.99" width="12.2049" height="57.0544"/>
    </g>
    <g>
     <polygon id="_116064104" class="fil1" points="461.437,540.75 473.201,540.75 473.201,502.747 473.201,491.151 473.201,485.313 461.437,485.313 "/>
     <path id="_116062280" class="fil1" d="M472.428 490.254c21.8238,-14.3043 36.9892,-2.92382 36.9674,17.0445 -0.0153543,14.273 -0.0454725,29.9528 -0.0401575,33.528 -4.04469,-0.0236221 -9.03662,0.0253937 -13.0807,0.00236221 -0.00649607,-3.77422 0.241536,-18.4477 0.357874,-30.1677 0.105709,-10.6701 -11.3321,-17.7414 -23.4313,-6.21378 -9.95375,9.48367 -0.773032,-14.1933 -0.773032,-14.1933z"/>
    </g>
    <g>
     <g>
      <polygon id="_116741272" class="fil1" points="513.01,540.937 524.774,540.937 524.774,502.934 524.774,491.338 524.774,485.5 513.01,485.5 "/>
      <path id="_116742184" class="fil1" d="M524.001 490.441c21.8238,-14.3043 36.9892,-2.92382 36.9674,17.0445 -0.0153543,14.273 -0.0454725,29.9528 -0.0401575,33.528 -4.04469,-0.0236221 -9.03662,0.0253937 -13.0807,0.00236221 -0.00649607,-3.77422 0.241536,-18.4477 0.357874,-30.1677 0.105709,-10.6701 -11.3321,-17.7414 -23.4313,-6.21378 -9.95375,9.48367 -0.773032,-14.1933 -0.773032,-14.1933z"/>
     </g>
     <polygon id="_116063768" class="fil1" points="513.01,485.99 513.342,464.265 524.817,464.21 524.774,485.99 "/>
    </g>
    <g>
     <path id="_116740432" class="fil1 str2" d="M594.368 481.343c15.6715,0 28.3801,13.2036 28.3801,29.4845 0,16.2809 -12.7087,29.4845 -28.3801,29.4845 -15.6715,0 -28.3801,-13.2036 -28.3801,-29.4845 0,-16.2809 12.7087,-29.4845 28.3801,-29.4845zm0 11.3976c9.79017,0 17.7295,8.10001 17.7295,18.0886 0,9.988 -7.93938,18.0886 -17.7295,18.0886 -9.78898,0 -17.729,-8.1006 -17.729,-18.0886 0,-9.98859 7.93997,-18.0886 17.729,-18.0886z"/>
     <rect id="_116740744" class="fil1" x="611.131" y="483.695" width="12.2049" height="57.0544"/>
    </g>
    <path id="_116063696" class="fil1" d="M636.281 493.591c-4.60276,6.46949 -5.61024,14.5524 -5.38347,20.5034 0.226181,5.95099 1.68721,9.77009 3.47481,13.0506 1.78819,3.27992 4.10492,5.90434 7.07658,8.27068 2.97107,2.36634 6.59764,4.4752 12.062,5.13071 5.46437,0.656103 12.7671,-0.140551 18.6349,-2.01496 5.86713,-1.87441 10.2998,-4.82599 11.3569,-7.61398 1.05827,-2.78858 -1.25906,-5.413 -2.50925,-6.66792 -1.25079,-1.2561 -1.43504,-1.14272 -1.77992,-0.930119l-2.39469 1.47402c-1.54488,0.951379 -4.12914,2.54173 -7.48583,3.61772 -3.62008,1.16102 -14.1939,1.4941 -16.0825,0.29941 -0.462402,-0.292323 -2.64449,-1.26496 -3.62658,-1.89744 -0.750591,-0.483662 -5.713,-7.03879 -4.83426,-9.64253 0.138189,-0.409252 0.307677,-0.222638 2.04685,-0.313583 1.73858,-0.090945 4.91162,-0.232087 10.9122,-0.600591 6,-0.368504 14.8276,-0.964371 20.1921,-1.96358 5.36457,-0.998623 7.26556,-2.40059 7.41615,-6.55099 0.15,-4.15099 -1.45158,-11.051 -6.35552,-16.6034 -4.90335,-5.55178 -13.1097,-9.75709 -21.4134,-9.37324 -8.30375,0.383859 -16.7038,5.35689 -21.3071,11.8258zm11.364 14.299c-2.11358,-0.0891733 -2.96575,-0.549213 -2.99114,-2.44725 -0.0253937,-1.89744 0.777166,-5.23347 3.09213,-7.95532 2.31496,-2.72244 6.14233,-4.8313 10.1215,-4.97185 3.97855,-0.140551 8.10827,1.68662 10.5768,4.1002 2.46792,2.41299 3.27343,5.41241 3.19784,7.21654 -0.0755906,1.80354 -1.03228,2.41299 -3.70158,2.81162 -2.66929,0.398032 -7.05119,0.585237 -10.9293,0.819686 -3.87815,0.234449 -7.25256,0.515552 -9.36615,0.426378z"/>
    <rect id="_116063744" class="fil1" transform="matrix(0.623207 0.782057 -0.782057 0.623207 671.166 455.586)" width="8.8317" height="24.7288"/>
    <g>
     <g>
      <polygon id="_116186352" class="fil1" points="692.239,540.75 704.003,540.75 704.003,502.747 704.003,491.151 704.003,485.313 692.239,485.313 "/>
      <path id="_116063336" class="fil1" d="M703.229 490.254c21.8238,-14.3043 36.9892,-2.92382 36.9674,17.0445 -0.0153543,14.273 -0.0454725,29.9528 -0.0401575,33.528 -4.04469,-0.0236221 -9.03662,0.0253937 -13.0807,0.00236221 -0.00649607,-3.77422 0.241536,-18.4477 0.357874,-30.1677 0.105709,-10.6701 -11.3321,-17.7414 -23.4313,-6.21378 -9.95375,9.48367 -0.773032,-14.1933 -0.773032,-14.1933z"/>
     </g>
     <g>
      <polygon id="_116743408" class="fil1" points="727.861,540.515 739.625,540.515 739.625,502.512 739.625,490.916 739.625,489.521 727.861,498.186 "/>
      <path id="_116185176" class="fil1" d="M738.852 490.019c21.8238,-14.3043 36.9892,-2.92382 36.9674,17.0445 -0.0153543,14.273 -0.0454725,29.9528 -0.0401575,33.528 -4.04469,-0.0236221 -9.03662,0.0253937 -13.0807,0.00236221 -0.00649607,-3.77422 0.241536,-18.4477 0.357874,-30.1677 0.105709,-10.6701 -11.3321,-17.7414 -23.4313,-6.21378 -9.95375,9.48367 -0.773032,-14.1933 -0.773032,-14.1933z"/>
     </g>
    </g>
   </g>
  </g>
 </g>
</svg>
